# xmcd CD database file
# Copyright (C) 1993-1998 Ti Kan
#
# Track frame offsets:
#	180
#	14927
#	34262
#	50007
#	68471
#	86613
#	103062
#	122218
#	137618
#	152579
#	176409
#
# Disc length: 2607 seconds
#
# Revision: 0
# Processed by: cddbd v1.4b41PL1 Copyright (c) Steve Scherf et al.
# Submitted via: CDmax 1.5
#
DISCID=930a2d0b
DTITLE=Joerg Arfert - Southern Nights - 1993
DYEAR=1900
DGENRE=
TTITLE0=Spanish Sunset
TTITLE1=Southern Nights
TTITLE2=Hope You Remember
TTITLE3=My Heart Is Burning
TTITLE4=Get It
TTITLE5=Traffic Jam
TTITLE6=Good Bye My Love
TTITLE7=Little Cat
TTITLE8=Snowflakes
TTITLE9=Dangle With Champagne
TTITLE10=Julian
EXTD=Guitars and Rythm&Blues\n\nOwn Style\n\nHamburg 1993
EXTT0=
EXTT1=
EXTT2=
EXTT3=
EXTT4=
EXTT5=
EXTT6=
EXTT7=
EXTT8=
EXTT9=
EXTT10=
PLAYORDER=
